<?xml version="1.0" encoding="UTF-8"?>
<svg width="200" height="60" viewBox="0 0 200 60" xmlns="http://www.w3.org/2000/svg">
  <!-- GCS logo (white version) -->
  <g fill="#FFFFFF">
    <!-- G -->
    <path d="M30,15 C18.95,15 10,23.95 10,35 C10,46.05 18.95,55 30,55 C36.85,55 42.85,51.15 46.1,45.35 L38.65,41.5 C36.85,44.65 33.65,46.75 30,46.75 C23.4,46.75 18.25,41.6 18.25,35 C18.25,28.4 23.4,23.25 30,23.25 C33.65,23.25 36.8,25.3 38.65,28.5 L46.1,24.65 C42.85,18.85 36.85,15 30,15 Z"/>
    <!-- C -->
    <path d="M85,15 C73.95,15 65,23.95 65,35 C65,46.05 73.95,55 85,55 C91.85,55 97.85,51.15 101.1,45.35 L93.65,41.5 C91.85,44.65 88.65,46.75 85,46.75 C78.4,46.75 73.25,41.6 73.25,35 C73.25,28.4 78.4,23.25 85,23.25 C88.65,23.25 91.8,25.3 93.65,28.5 L101.1,24.65 C97.85,18.85 91.85,15 85,15 Z"/>
    <!-- S -->
    <path d="M130,15 C118.95,15 110,23.95 110,35 C110,46.05 118.95,55 130,55 C141.05,55 150,46.05 150,35 L141.75,35 C141.75,41.6 136.6,46.75 130,46.75 C123.4,46.75 118.25,41.6 118.25,35 C118.25,28.4 123.4,23.25 130,23.25 C136.6,23.25 141.75,28.4 141.75,35 L150,35 C150,23.95 141.05,15 130,15 Z"/>
  </g>
  <text x="160" y="40" font-family="Arial" font-size="14" fill="#FFFFFF">GCS</text>
</svg>